<svg width="178" height="190" viewBox="0 0 178 190" fill="none" xmlns="http://www.w3.org/2000/svg">
<g filter="url(#filter0_d_370_1032)">
<path d="M100.929 165.302C101.851 163.833 102.752 162.386 103.613 160.938C103.818 160.593 104.044 160.247 104.269 159.88C104.274 159.847 104.288 159.817 104.31 159.793L104.371 159.664C104.582 159.345 104.774 159.014 104.945 158.67C105.355 158.022 105.724 157.353 106.093 156.683C106.279 156.39 106.45 156.087 106.605 155.776C106.974 155.128 107.323 154.501 107.671 153.875C107.917 153.421 108.163 152.989 108.388 152.535L109.126 151.175C111.556 146.554 113.738 141.795 115.664 136.918C116.012 136.01 116.36 135.125 116.668 134.239C117.078 133.116 117.467 132.014 117.815 130.934C118.533 128.752 119.168 126.614 119.701 124.54C119.709 124.531 119.715 124.521 119.718 124.51C119.721 124.499 119.723 124.487 119.721 124.475C119.988 123.46 120.234 122.445 120.439 121.451C120.828 119.68 121.156 117.973 121.402 116.288C121.42 116.233 121.427 116.174 121.422 116.116C121.504 115.683 121.566 115.273 121.607 114.841C121.624 114.8 121.63 114.756 121.627 114.711C121.73 114.02 121.812 113.329 121.873 112.659C122.078 110.78 122.181 108.944 122.222 107.173C122.285 104.474 122.168 101.775 121.873 99.0936C118.348 67.4908 89.8004 52.8019 70.9052 46.4511C70.8232 46.4295 70.7617 46.4079 70.6797 46.3863C70.6273 46.3642 70.5719 46.3495 70.5158 46.3431C70.4748 46.3431 70.4338 46.3215 70.3928 46.3215L70.3928 46.2999C70.3598 46.2873 70.3254 46.28 70.2903 46.2783C68.9992 45.8462 67.7696 45.479 66.581 45.1334C65.6588 44.8526 64.757 44.615 63.9168 44.3773C78.2829 34.8511 94.555 32.2374 108.88 32.5182C109.228 32.5182 109.556 32.5398 109.884 32.5398C110.212 32.5398 110.561 32.5614 110.888 32.583C111.38 32.583 111.872 32.6046 112.344 32.6478C112.63 32.6478 112.917 32.6694 113.204 32.691C113.573 32.7126 113.922 32.7342 114.27 32.7558C114.339 32.7521 114.408 32.7595 114.475 32.7774C115.561 32.8422 116.627 32.9286 117.672 33.0366C117.774 33.0582 117.877 33.0582 117.959 33.0798C118.881 33.1662 119.803 33.2742 120.705 33.3822C121.033 33.4254 121.34 33.4687 121.648 33.5119C122.181 33.5767 122.693 33.6415 123.205 33.7279C123.82 33.8143 124.414 33.9007 125.009 34.0087C125.378 34.0519 125.726 34.1167 126.074 34.1815C126.792 34.3111 127.488 34.4191 128.185 34.5487C128.431 34.5919 128.657 34.6351 128.882 34.6783C128.962 34.7032 129.045 34.7176 129.128 34.7215C129.497 34.8079 129.866 34.8727 130.214 34.9591C130.767 35.0672 131.321 35.1752 131.854 35.3048C132.386 35.4344 132.899 35.5424 133.411 35.6504C134.21 35.8232 134.969 36.0176 135.727 36.212C136.014 36.2768 136.301 36.3416 136.567 36.428C137.92 36.7737 139.149 37.1193 140.277 37.4433C140.369 37.4591 140.458 37.4882 140.543 37.5297C140.768 37.5945 140.994 37.6593 141.199 37.7241C141.404 37.7889 141.609 37.8321 141.814 37.8969C141.865 37.9239 141.921 37.9386 141.978 37.9401C142.551 38.1345 143.084 38.3074 143.576 38.4586C143.638 38.4802 143.719 38.5018 143.781 38.5234C143.986 38.5882 144.17 38.653 144.334 38.7178C144.519 38.7826 144.703 38.8474 144.867 38.8906C145.031 38.9338 145.134 38.977 145.257 39.0202C145.379 39.0634 145.502 39.1066 145.625 39.1498C145.641 39.152 145.655 39.1595 145.666 39.1714C145.851 39.2362 145.994 39.2794 146.138 39.3442C146.281 39.409 146.445 39.4522 146.568 39.4954C146.958 39.6466 147.203 39.733 147.306 39.7763C147.317 39.7886 147.331 39.7961 147.347 39.7979C148.617 40.5755 149.847 41.3964 151.036 42.2604L151.077 42.3036C162.425 50.6147 170.274 63.2407 172.972 77.5259C175.671 91.8114 173.008 106.643 165.545 118.902C165.524 118.949 165.497 118.993 165.463 119.032C160.871 126.471 154.66 132.647 147.347 137.047L116.914 155.56L100.929 165.302Z" fill="url(#paint0_linear_370_1032)"/>
<path d="M24.1182 170.262C24.0345 169.09 23.9717 167.898 23.9089 166.747C23.867 166.266 23.8461 165.806 23.8251 165.346C23.8042 165.325 23.8042 165.325 23.8251 165.304C23.8078 165.228 23.8006 165.151 23.8042 165.074C23.7868 164.928 23.7797 164.781 23.7833 164.634C23.7659 164.53 23.7588 164.425 23.7623 164.32C23.6995 163.295 23.6577 162.27 23.6367 161.266C23.62 161.155 23.6129 161.043 23.6158 160.931C23.553 159.529 23.5111 158.128 23.4693 156.747C23.4274 155.575 23.4065 154.404 23.3855 153.253C23.3646 152.5 23.3646 151.747 23.3646 150.994C23.2041 139.534 23.9107 128.078 25.4788 116.725C25.6672 116.913 25.8347 117.122 26.044 117.311V117.332C26.3161 117.624 26.5673 117.896 26.8394 118.168C27.2999 118.65 27.7395 119.11 28.1791 119.549C28.1979 119.566 28.2191 119.58 28.2419 119.591C67.2394 158.797 101.401 133.545 119.445 112.938C119.486 112.909 119.521 112.874 119.55 112.834C119.592 112.813 119.592 112.792 119.613 112.771C119.634 112.75 119.634 112.771 119.655 112.75L119.676 112.729C119.99 112.352 120.324 111.997 120.618 111.62C121.35 110.762 122.062 109.925 122.732 109.089C122.69 110.804 122.585 112.582 122.376 114.403C122.313 115.051 122.229 115.72 122.125 116.39C122.128 116.433 122.121 116.476 122.104 116.515C122.062 116.934 121.999 117.332 121.915 117.75C121.92 117.806 121.913 117.863 121.894 117.917C121.643 119.549 121.308 121.202 120.911 122.917C120.68 123.88 120.45 124.863 120.178 125.846C120.179 125.858 120.178 125.869 120.175 125.88C120.171 125.891 120.165 125.901 120.157 125.909C119.613 127.918 118.985 129.989 118.231 132.102C117.875 133.148 117.478 134.215 117.059 135.303C116.745 136.161 116.389 137.018 116.033 137.897C114.067 142.62 111.838 147.23 109.356 151.705L108.602 153.023C108.372 153.462 108.121 153.881 107.87 154.32C107.514 154.927 107.158 155.534 106.781 156.161C106.622 156.463 106.448 156.756 106.258 157.04C105.881 157.688 105.504 158.337 105.086 158.965C104.91 159.297 104.715 159.619 104.499 159.927L104.437 160.052C104.415 160.075 104.4 160.105 104.395 160.136C104.165 160.492 103.934 160.827 103.725 161.161C102.846 162.563 101.925 163.965 100.983 165.387L95.8333 168.358C95.8333 168.358 95.8124 168.358 95.7915 168.4C95.7749 168.398 95.7582 168.401 95.7431 168.408C95.7283 168.415 95.7159 168.427 95.7077 168.442L84.9902 174.634C75.5831 180.116 64.7392 182.631 53.8781 181.851C43.0168 181.071 32.6445 177.032 24.1182 170.262Z" fill="#CF09AF"/>
<path d="M25.4185 170.923C18.7025 165.851 13.2771 159.343 9.5632 151.904C5.84904 144.464 3.94586 136.293 4.00114 128.023V54.5701C3.96509 47.0349 5.54591 39.5754 8.64302 32.6683C8.64453 32.6523 8.65228 32.6372 8.66459 32.6265C8.66372 32.5971 8.67108 32.5679 8.68619 32.5423C11.8802 25.5273 16.5562 19.2445 22.4102 14.1021C28.2641 8.95973 35.1652 5.07297 42.6647 2.69442C50.1643 0.315867 58.0945 -0.50126 65.94 0.296189C73.7856 1.09364 81.3706 3.48785 88.2026 7.32312L92.8013 9.88489C92.9524 9.98988 93.0388 10.0529 93.0388 10.0529L117.587 23.8281L153.556 44.0075C153.448 43.9656 153.189 43.8818 152.779 43.7348C152.649 43.6928 152.498 43.6298 152.325 43.5878C152.153 43.5458 152.023 43.4826 151.829 43.4196C151.817 43.4082 151.802 43.4009 151.786 43.3988C151.656 43.3568 151.548 43.3148 151.397 43.2728C151.246 43.2308 151.138 43.1888 150.987 43.1468C150.836 43.1048 150.62 43.0416 150.425 42.9786C150.231 42.9156 150.058 42.8528 149.842 42.7898C149.778 42.7688 149.691 42.7478 149.627 42.7268C149.108 42.5799 148.547 42.4119 147.942 42.2229C147.882 42.2214 147.824 42.2069 147.77 42.1807C147.554 42.1177 147.338 42.0549 147.122 42.0129C146.906 41.9709 146.669 41.8869 146.431 41.8239C146.342 41.7836 146.248 41.7552 146.15 41.7399C144.963 41.4249 143.668 41.0887 142.243 40.753C141.962 40.6688 141.66 40.6058 141.357 40.5428C140.559 40.3538 139.76 40.165 138.918 39.997C138.378 39.892 137.838 39.766 137.277 39.661C136.716 39.5561 136.133 39.4301 135.55 39.3251C135.183 39.2411 134.794 39.1779 134.405 39.0939C134.318 39.0903 134.231 39.0762 134.146 39.0521C133.909 39.0101 133.671 38.9681 133.412 38.9261C132.678 38.8001 131.944 38.6949 131.189 38.5689C130.822 38.5059 130.454 38.4431 130.066 38.4011C129.44 38.2961 128.814 38.2121 128.166 38.1281C127.626 38.0439 127.086 37.9809 126.525 37.918C126.201 37.876 125.877 37.834 125.532 37.792L123.265 37.5402C123.071 37.5402 122.855 37.5192 122.639 37.4982C122.552 37.4772 122.445 37.477 122.337 37.456C121.235 37.351 120.113 37.267 118.969 37.204C118.898 37.1868 118.825 37.1796 118.753 37.183C118.386 37.162 118.019 37.141 117.63 37.12C117.328 37.099 117.025 37.0782 116.723 37.0782C116.227 37.036 115.708 37.0152 115.19 37.0152C114.845 36.9942 114.478 36.9732 114.132 36.9732C113.787 36.9732 113.441 36.9522 113.074 36.9522C97.9829 36.6792 80.8404 39.2199 65.7057 48.4803C65.0148 48.9002 64.3239 49.3412 63.6546 49.7822C63.5808 49.845 63.5013 49.9012 63.4171 49.9504C63.3092 50.0344 63.2444 50.0764 63.2444 50.0764C46.2098 61.4996 32.0683 81.931 26.8219 117.188C25.2046 128.583 24.4757 140.081 24.6413 151.583C24.6413 152.339 24.6413 153.096 24.6629 153.852C24.6845 155.006 24.7061 156.182 24.7493 157.358C24.7924 158.744 24.8356 160.151 24.9004 161.558C24.8974 161.67 24.9047 161.783 24.922 161.894C24.9436 162.902 24.9867 163.931 25.0515 164.96C25.0478 165.065 25.0552 165.171 25.0731 165.275C25.0694 165.422 25.0768 165.569 25.0947 165.716C25.091 165.793 25.0984 165.871 25.1163 165.946C25.0947 165.967 25.0947 165.968 25.1163 165.989C25.1379 166.451 25.1595 166.912 25.2026 167.395C25.2674 168.551 25.3322 169.747 25.4185 170.923Z" fill="url(#paint1_linear_370_1032)"/>
<g style="mix-blend-mode:multiply" opacity="0.25">
<g style="mix-blend-mode:multiply" opacity="0.25">
<path d="M63.5534 50.2007C63.516 50.2007 63.4785 50.1796 63.441 50.1796C63.409 50.1678 63.3779 50.1537 63.3474 50.1375C63.3794 50.1394 63.4109 50.1465 63.441 50.1586C63.4598 50.1797 63.4972 50.1796 63.5534 50.2007Z" fill="#CF09AF"/>
</g>
</g>
<g style="mix-blend-mode:multiply" opacity="0.25">
<g style="mix-blend-mode:multiply" opacity="0.25">
<path d="M22.4839 149.585C22.3341 154.814 22.3154 160.065 22.3154 165.315C22.2998 165.24 22.2935 165.163 22.2967 165.085C21.791 159.918 21.4914 154.772 21.3041 149.585C21.1356 144.292 21.0607 138.979 21.2292 133.665C21.3978 128.352 21.6974 123.039 22.2779 117.767C22.5588 115.111 22.9334 112.475 23.2892 109.839C23.7574 107.224 24.0945 104.568 24.6937 101.974L25.5177 98.0618L26.5102 94.1919C27.147 91.6189 27.971 89.0668 28.7575 86.5356C29.619 84.0254 30.5366 81.536 31.5666 79.0885C32.0535 77.8543 32.634 76.662 33.1958 75.4696C33.7576 74.2772 34.3007 73.064 34.9374 71.9134C36.136 69.5705 37.503 67.3113 38.8888 65.0939C39.6379 64.0271 40.3496 62.9184 41.1174 61.8725L43.4995 58.7765L46.0463 55.8479L48.743 53.0866L51.6083 50.4718L54.4173 48.1916L54.5484 48.087L54.5672 48.0661L56.5148 46.6436L58.6309 45.3257C60.0109 44.4191 61.4366 43.6018 62.9007 42.8783C64.3614 42.167 65.7847 41.3721 67.3016 40.7655L68.2754 40.3889C68.2754 40.368 68.2941 40.368 68.3128 40.368L71.8148 39.0292L76.4217 37.6904C77.976 37.293 79.5491 37.021 81.1034 36.6863C82.6578 36.3516 84.2496 36.247 85.8039 36.0169C87.3583 35.7868 88.9688 35.745 90.5419 35.6195C92.1149 35.494 93.688 35.5358 95.2611 35.5358C96.8342 35.5358 98.4072 35.6195 99.9803 35.7241C103.118 35.8945 106.244 36.2648 109.344 36.8328C110.898 37.0419 112.415 37.4185 113.969 37.7113C115.524 38.0042 117.022 38.4435 118.539 38.7991C120.056 39.2384 121.591 39.594 123.071 40.117C124.513 40.5772 125.899 41.0583 127.303 41.5813C127.387 41.5966 127.469 41.6248 127.547 41.665C121.492 40.1115 115.347 39.042 109.157 38.4644C107.621 38.3389 106.085 38.1925 104.531 38.1506C102.977 38.1088 101.46 37.9833 99.9054 38.0251C98.3698 38.0251 96.8342 38.0042 95.2985 38.1297C93.7629 38.2134 92.2273 38.2552 90.7104 38.4644C89.1935 38.6736 87.6392 38.7154 86.141 39.0292C84.6428 39.343 83.1072 39.4894 81.6091 39.8869C80.1109 40.2843 78.6314 40.5772 77.152 41.0165L72.7699 42.439L68.5001 44.2171C67.0956 44.8237 65.7472 45.6186 64.3801 46.3089C63.0114 47.035 61.6799 47.8452 60.3913 48.7355L59.9605 49.0284C59.1178 48.7564 58.2938 48.5263 57.526 48.2962C56.8519 48.7564 56.1964 49.2585 55.541 49.7605C55.4473 49.8442 55.3912 49.886 55.3912 49.886C40.6155 61.2658 28.3493 81.6197 23.7986 116.742C23.9671 116.93 24.1169 117.14 24.3042 117.328V117.349C24.5476 117.642 24.7724 117.914 25.0158 118.186C24.8847 119.064 24.7724 119.943 24.66 120.821C24.0982 125.131 23.6549 129.461 23.3304 133.812C22.9521 139.062 22.615 144.313 22.4839 149.585Z" fill="#CF09AF"/>
</g>
</g>
<g style="mix-blend-mode:multiply" opacity="0.15">
<g style="mix-blend-mode:multiply" opacity="0.15">
<path d="M55.5375 49.7607C59.6101 46.3541 63.8626 43.2247 68.2719 40.3891C68.2719 40.3682 68.2906 40.3682 68.3094 40.3682C79.0675 33.2937 90.5567 27.709 102.524 23.7378L133.723 43.8407C133.629 43.7989 133.405 43.7152 133.049 43.5688C132.936 43.5269 132.805 43.4642 132.656 43.4223C132.506 43.3805 132.393 43.3178 132.225 43.255C132.215 43.2435 132.202 43.2364 132.187 43.2341C132.075 43.1922 131.981 43.1504 131.85 43.1086C131.719 43.0667 131.626 43.0249 131.495 42.9831C131.363 42.9412 131.176 42.8785 131.008 42.8157C130.839 42.7529 130.689 42.6902 130.502 42.6274C130.446 42.6065 130.371 42.5856 130.315 42.5647C129.865 42.4183 129.378 42.2509 128.854 42.0626C128.802 42.0612 128.751 42.0469 128.704 42.0208C128.517 41.958 128.33 41.8953 128.142 41.8534C127.955 41.8116 127.749 41.7279 127.543 41.6652C127.466 41.625 127.384 41.5968 127.3 41.5815C126.27 41.2677 125.146 40.933 123.91 40.5983C123.667 40.5146 123.404 40.4519 123.142 40.3891C122.449 40.2009 121.756 40.0126 121.026 39.8452C120.09 39.6151 119.116 39.385 118.105 39.1758C117.786 39.0922 117.449 39.0294 117.112 38.9457C117.036 38.942 116.96 38.928 116.887 38.9039C116.681 38.8621 116.475 38.8202 116.251 38.7784C115.633 38.6529 114.977 38.5274 114.322 38.4228C114.003 38.36 113.685 38.2973 113.348 38.2554C112.805 38.1508 112.262 38.0672 111.7 37.9835C111.232 37.8998 110.764 37.8371 110.277 37.7743C109.996 37.7325 109.715 37.6906 109.415 37.6488L107.449 37.3978C107.168 37.3768 106.906 37.3559 106.644 37.3141C105.689 37.2095 104.715 37.1258 103.722 37.0631C103.661 37.0457 103.598 37.0386 103.535 37.0421C103.217 37.0212 102.898 37.0003 102.561 36.9794C102.299 36.9585 102.037 36.9375 101.775 36.9375C101.344 36.8957 100.894 36.8748 100.445 36.8748C100.145 36.8539 99.827 36.833 99.5274 36.833C99.2278 36.833 98.9281 36.812 98.6098 36.812C85.5195 36.5401 70.6502 39.0713 57.5226 48.2964C56.8484 48.7566 56.1929 49.2587 55.5375 49.7607Z" fill="#CF09AF"/>
</g>
</g>
<g style="mix-blend-mode:multiply" opacity="0.15">
<g style="mix-blend-mode:multiply" opacity="0.15">
<path d="M22.5787 170.273C22.5038 169.102 22.4474 167.91 22.3912 166.759C22.3538 166.278 22.3352 165.818 22.3165 165.357C22.2978 165.337 22.2978 165.337 22.3165 165.316C22.301 165.24 22.2946 165.163 22.2976 165.086C22.2821 164.94 22.2759 164.793 22.2789 164.646C22.2633 164.542 22.2571 164.437 22.2603 164.332C22.2042 163.307 22.1667 162.282 22.148 161.278C22.1328 161.167 22.1266 161.056 22.1291 160.944C22.0729 159.542 22.0356 158.141 21.9982 156.76C21.9607 155.588 21.9418 154.417 21.9231 153.266C21.9043 152.513 21.9045 151.76 21.9045 151.007C21.7609 139.549 22.3931 128.094 23.7958 116.742C23.9643 116.931 24.1143 117.14 24.3016 117.328V117.349C24.3765 118.311 24.5076 119.483 24.6574 120.822C26.2305 133.477 32.2604 161.99 55.5382 180.001C56.2685 180.586 57.0365 181.151 57.8043 181.695C45.18 183.143 32.5469 179.046 22.5787 170.273Z" fill="#CF09AF"/>
</g>
</g>
<g style="mix-blend-mode:overlay" opacity="0.6">
<g style="mix-blend-mode:overlay" opacity="0.6">
<path d="M63.5534 50.2007C63.516 50.2007 63.4785 50.1796 63.441 50.1796C63.409 50.1678 63.3779 50.1537 63.3474 50.1375C63.3794 50.1394 63.4109 50.1465 63.441 50.1586C63.4598 50.1797 63.4972 50.1796 63.5534 50.2007Z" fill="#CF09AF"/>
</g>
</g>
<g style="mix-blend-mode:multiply" opacity="0.25">
<g style="mix-blend-mode:multiply" opacity="0.25">
<path d="M22.5782 170.273C16.7528 165.22 12.047 158.737 8.82541 151.326C5.60398 143.915 3.9532 135.774 4.00095 127.536V78.3143C4.00095 78.3143 4.78749 89.2967 5.33057 105.76C5.48039 109.881 5.64893 114.357 5.74257 119.064C5.91112 123.75 5.83619 128.875 6.36055 133.644C6.97761 138.657 8.21284 143.549 10.0311 148.183C11.9131 152.951 14.4394 157.367 17.5219 161.278C19.0107 163.248 20.639 165.081 22.3909 166.759C24.1706 168.48 26.0609 170.053 28.0465 171.465C31.8698 174.19 36.0096 176.316 40.3502 177.783C44.4357 179.13 48.6585 179.889 52.9161 180.042C53.7962 180.042 54.6764 180.042 55.5379 180C56.6615 179.979 57.7664 179.917 58.8713 179.791C60.7157 179.601 62.548 179.287 64.3583 178.85C67.5679 178.061 70.7032 176.933 73.7219 175.482C76.3998 174.164 78.722 172.762 80.6509 171.716C84.003 169.876 86.1192 168.704 86.6248 168.453L77.0365 174.645C68.6206 180.126 58.9194 182.641 49.2025 181.861C39.4858 181.081 30.2061 177.042 22.5782 170.273Z" fill="#CF09AF"/>
</g>
</g>
<g style="mix-blend-mode:multiply" opacity="0.25">
<g style="mix-blend-mode:multiply" opacity="0.25">
<path d="M8.04626 32.5024C8.04533 32.4731 8.05189 32.444 8.06499 32.4185C10.8355 25.4302 14.8912 19.1712 19.969 14.0484C25.0467 8.92564 31.0326 5.05367 37.5377 2.68416C44.0427 0.314665 50.9214 -0.499353 57.7264 0.295062C64.5314 1.08948 71.1108 3.47458 77.0368 7.29525L81.0257 9.84727C81.1568 9.95187 81.2317 10.0146 81.2317 10.0146C81.2317 10.0146 79.9582 9.42892 77.7859 8.36207C76.6997 7.79726 75.3701 7.31611 73.8158 6.58395C73.048 6.24925 72.224 5.85184 71.3625 5.51714C70.5011 5.2452 69.5835 4.95232 68.6471 4.63854C66.618 3.97857 64.5541 3.46159 62.4672 3.09057C61.3357 2.84867 60.1905 2.69487 59.0401 2.63036C57.8595 2.46475 56.6715 2.37394 55.482 2.3584C54.2647 2.3584 53.0287 2.37934 51.774 2.37934C50.538 2.50485 49.2833 2.65128 48.0099 2.77679C46.7366 2.91331 45.4729 3.14389 44.227 3.46709L42.3168 3.88548C41.6988 4.03191 41.0808 4.2829 40.4628 4.49208C39.2456 4.93138 37.9534 5.18242 36.7736 5.74723C35.5751 6.27019 34.3765 6.79316 33.1967 7.31613C30.9345 8.5021 28.7337 9.82903 26.6048 11.2907C25.5711 11.9662 24.5767 12.7137 23.6272 13.529C22.6721 14.3239 21.7545 15.0979 20.8556 15.83C20.0129 16.6877 19.2076 17.5035 18.4211 18.2985C18.0091 18.6959 17.5971 19.0724 17.2413 19.4699C16.8855 19.8673 16.5484 20.2857 16.2113 20.7041C15.5184 21.4989 14.8816 22.294 14.2637 23.0262C13.6859 23.7399 13.1421 24.4871 12.6344 25.2645C11.7269 26.4709 10.8827 27.735 10.1063 29.0508C8.94517 31.0381 8.19608 32.2513 8.04626 32.5024Z" fill="#CF09AF"/>
</g>
</g>
</g>
<defs>
<filter id="filter0_d_370_1032" x="-6.10352e-05" y="-1.52588e-05" width="178" height="190" filterUnits="userSpaceOnUse" color-interpolation-filters="sRGB">
<feFlood flood-opacity="0" result="BackgroundImageFix"/>
<feColorMatrix in="SourceAlpha" type="matrix" values="0 0 0 0 0 0 0 0 0 0 0 0 0 0 0 0 0 0 127 0" result="hardAlpha"/>
<feOffset dy="4"/>
<feGaussianBlur stdDeviation="2"/>
<feComposite in2="hardAlpha" operator="out"/>
<feColorMatrix type="matrix" values="0 0 0 0 0 0 0 0 0 0 0 0 0 0 0 0 0 0 0.25 0"/>
<feBlend mode="normal" in2="BackgroundImageFix" result="effect1_dropShadow_370_1032"/>
<feBlend mode="normal" in="SourceGraphic" in2="effect1_dropShadow_370_1032" result="shape"/>
</filter>
<linearGradient id="paint0_linear_370_1032" x1="118.958" y1="32.4981" x2="118.958" y2="165.302" gradientUnits="userSpaceOnUse">
<stop stop-color="#CF09AF"/>
<stop offset="1" stop-color="#F8A700"/>
</linearGradient>
<linearGradient id="paint1_linear_370_1032" x1="153.556" y1="85.4616" x2="3.99997" y2="85.4616" gradientUnits="userSpaceOnUse">
<stop stop-color="#F8CE00"/>
<stop offset="1" stop-color="#CF09AF"/>
</linearGradient>
</defs>
</svg>
